# xmcd
#
# Track frame offsets:
#	150
#	10560
#	24021
#	34121
#	48951
#	62074
#	72355
#	84977
#
# Disc length: 1322 seconds
#
# Revision: 0
# Processed by: cddbd v1.5.2PL0 Copyright (c) Steve Scherf et al.
# Submitted via: EasyCDDAExtractor 16.0.6.1
#
DISCID=52052808
DTITLE=Flatbroke Trio - Still searchin'
DYEAR=2009
DGENRE=
TTITLE0=I´ve Got A Leavin´ On My Mind
TTITLE1=Smoke Along The Track
TTITLE2=Lost Highway
TTITLE3=Jack The Ripper
TTITLE4=Stonedeaf and Blind
TTITLE5=Don´t Look Back
TTITLE6=Honky Tonk Maniac From Mars
TTITLE7=Wagon Trains
EXTD=
EXTT0=
EXTT1=
EXTT2=
EXTT3=
EXTT4=
EXTT5=
EXTT6=
EXTT7=
PLAYORDER=
